<svg width="82" height="83" xmlns="http://www.w3.org/2000/svg" xmlns:xlink="http://www.w3.org/1999/xlink" xml:space="preserve" overflow="hidden"><g transform="translate(-2159 -1196)"><path d="M61.4999 44.4166 59.1765 44.4166 52.3432 51.2499 58.869 51.2499 64.9165 58.0832 17.0833 58.0832 23.1649 51.2499 30.1691 51.2499 23.3358 44.4166 20.5 44.4166 10.25 54.6665 10.25 68.3332C10.25 72.0915 13.2908 75.1665 17.0491 75.1665L64.9165 75.1665C68.6748 75.1665 71.7498 72.1257 71.7498 68.3332L71.7498 54.6665 61.4999 44.4166ZM58.0832 27.1624 41.1707 44.0749 29.0758 31.9799 45.9882 15.0675 58.0832 27.1624ZM43.5966 7.82415 21.8324 29.5883C20.5 30.9208 20.5 33.0733 21.8324 34.4058L38.7449 51.3182C40.0774 52.6507 42.2299 52.6507 43.5624 51.3182L65.2923 29.5883C66.6248 28.2558 66.6248 26.1033 65.2923 24.7708L48.3799 7.85831C47.0816 6.49165 44.9291 6.49165 43.5966 7.82415Z" fill="#E3E3E3" transform="matrix(1 0 0 1.0122 2159 1196)"/><path d="M2189.69 1226.82 2206.57 1212.01 2217.45 1224.41 2200.57 1239.22Z" stroke="#E3E3E3" stroke-width="6.875" stroke-miterlimit="8" fill="#E3E3E3" fill-rule="evenodd"/></g></svg>